<svg xmlns="http://www.w3.org/2000/svg" viewBox="0 0 500 500"><g id="freepik--Floor--inject-23"><ellipse id="freepik--Shadow--inject-23" cx="244.14" cy="376.74" rx="169.15" ry="97.66" style="fill:#e6e6e6"></ellipse></g><g id="freepik--Plants--inject-23"><g id="freepik--Leaves--inject-23"><path d="M64.22,236.64a9,9,0,0,1-2.44-8.32,8.89,8.89,0,0,1,5.81-6.3s2.49,4.47,1.13,8.9A8.93,8.93,0,0,1,64.22,236.64Z" style="fill:#8AFF00"></path><path d="M66.28,230.62c-2.32,7.51-1.44,16.53-.49,24.21a101.48,101.48,0,0,0,5.27,22.83,87.73,87.73,0,0,0,13.87,24,120.59,120.59,0,0,0,9.4,10.42c3.85,3.84,8.21,7.23,11.93,11.19.8.86-.77,1.85-1.56,1.36-8.15-5.07-15.33-13-21.35-20.39a88.66,88.66,0,0,1-15.1-26.08c-5.28-14.83-8-32.9-2.34-47.9.12-.33.44.11.37.33Z" style="fill:#37474f"></path><path d="M70.43,301.64s-4.57,5.09-11.63.09S50.41,286,50.41,286s10,1.39,14.61,4.66C70.61,294.59,70.6,298.16,70.43,301.64Z" style="fill:#8AFF00"></path><path d="M88.56,293.27s-6.08-3.13-3-11.23S98.61,270,98.61,270s1.17,10-.81,15.31C95.43,291.66,92,292.56,88.56,293.27Z" style="fill:#8AFF00"></path><path d="M60.76,277.55a9.53,9.53,0,0,1-9.15-2.35c-4.38-4-2.86-12.08-2.86-12.08s8.3.33,11.61,5.26A8.35,8.35,0,0,1,60.76,277.55Z" style="fill:#8AFF00"></path><path d="M79.71,270.24a9.56,9.56,0,0,1-2.41-9.13c1.36-5.78,9.16-8.39,9.16-8.39s3.75,7.41,1.06,12.7A8.33,8.33,0,0,1,79.71,270.24Z" style="fill:#8AFF00"></path><path d="M57.76,255.68A9,9,0,0,1,49.83,253c-3.81-3.68-3.06-11.43-3.06-11.43s7.6,1.22,9.64,3.64S57.76,255.68,57.76,255.68Z" style="fill:#8AFF00"></path><path d="M80.67,232.11a8.43,8.43,0,0,0-6.36,3.76c-2.74,3.78-1.06,10-1.06,10s6.28-2.48,7.69-4.88S80.67,232.11,80.67,232.11Z" style="fill:#8AFF00"></path><path d="M57.23,292.55c1.21.93,2.58,1.74,3.85,2.61s2.63,1.67,4,2.46c2.73,1.59,5.57,3,8.44,4.34,2.7,1.25,5.45,2.4,8.22,3.48s5.4,1.65,8,2.64c.76.29.09,1.39-.53,1.39-2.71,0-5.51-1.26-8-2.21-2.79-1.07-5.56-2.21-8.27-3.46a67.51,67.51,0,0,1-8-4.32c-1.5-1-2.9-2-4.3-3.1A42.83,42.83,0,0,1,57.08,293c-.14-.13-.09-.68.15-.49Z" style="fill:#37474f"></path><path d="M53.09,268.85c.75,1.78,2.7,3.24,4.16,4.44s3,2.62,4.63,3.87a48.21,48.21,0,0,0,5.1,3.53c1.06.64,2.13,1.27,3.2,1.9a10.1,10.1,0,0,1,2.9,1.92c.3.38-.08,1.27-.63,1.14A15.65,15.65,0,0,1,69,284c-1.13-.61-2.28-1.19-3.39-1.85A53,53,0,0,1,60,278.21c-3-2.41-6.56-5.24-7.29-9.22-.06-.29.23-.45.36-.14Z" style="fill:#37474f"></path><path d="M92.35,280.48a38.24,38.24,0,0,1-1.84,5.73,33.2,33.2,0,0,1-2.32,5.16,25.29,25.29,0,0,1-3.12,4.22c-1,1.12-2.52,2.72-4.12,2.94-.44.06-1.12-.36-.82-.9.41-.77,1.54-1.25,2.21-1.8a15.3,15.3,0,0,0,1.62-1.6,33.68,33.68,0,0,0,2.74-3.56c2.17-3.25,4.31-6.65,5.23-10.49.1-.42.49,0,.42.3Z" style="fill:#37474f"></path><path d="M84,258.77a12.08,12.08,0,0,1,0,2.55,28.5,28.5,0,0,1-.75,3.32,35.7,35.7,0,0,1-6.57,12.69c-1.22,1.52-2.5,4.06-4.63,4.34a.57.57,0,0,1-.66-.63,6.13,6.13,0,0,1,1.51-2.24c.58-.73,1.1-1.5,1.69-2.21a43.57,43.57,0,0,0,3.54-5,45.42,45.42,0,0,0,3-5.78,29.08,29.08,0,0,0,1.2-3.35c.36-1.24.79-2.51,1.07-3.77a.3.3,0,1,1,.59.06Z" style="fill:#37474f"></path><path d="M50.63,247.68A42.27,42.27,0,0,0,54.86,252c1.38,1.28,2.69,2.65,4.09,3.91,1.25,1.12,2.53,2.2,3.79,3.32a14.2,14.2,0,0,1,3.37,3.55c.32.6-.55,1.57-1.14,1.07-1.41-1.21-2.64-2.64-4-3.87s-2.7-2.32-4-3.59-2.37-2.47-3.44-3.79A35.08,35.08,0,0,1,50.39,248c-.13-.21,0-.61.24-.33Z" style="fill:#37474f"></path><path d="M77.59,238.72a26,26,0,0,1-.71,2.86,28.88,28.88,0,0,1-1.26,2.78,43.61,43.61,0,0,1-2.77,5.07,32,32,0,0,1-3.65,4.31,23.16,23.16,0,0,1-4,3.76c-1,.64-1.82-.59-.85-1.28a22.85,22.85,0,0,0,3.33-3.41A49.72,49.72,0,0,0,71,249c1-1.41,1.88-3,2.83-4.43.44-.68.87-1.37,1.28-2.07a18.05,18.05,0,0,0,1.93-4c.14-.48.61-.22.51.2Z" style="fill:#37474f"></path></g><g id="freepik--leaves--inject-23"><path d="M108.21,353.08c-.15-29.85-20-38.63-60.62-35.72,0,0,.25,22.33,12.47,33.62C75.31,365.07,100.19,363.21,108.21,353.08Z" style="fill:#8AFF00"></path><path d="M108.21,353.08c-.15-29.85-20-38.63-60.62-35.72,0,0,.25,22.33,12.47,33.62C75.31,365.07,100.19,363.21,108.21,353.08Z" style="opacity:0.30000000000000004"></path><path d="M55.83,321.74c12,5,42,16.14,52.38,31.34l-.22-6.61S100.48,332.5,55.83,321.74Z" style="opacity:0.2"></path><path d="M109.59,356.31c-20.32-21.88-40.91-14.85-68.79,14.76,0,0,15.31,16.26,31.94,16.29C93.51,387.41,110.55,369.19,109.59,356.31Z" style="fill:#8AFF00"></path><path d="M109.59,356.31c-20.32-21.88-40.91-14.85-68.79,14.76,0,0,15.31,16.26,31.94,16.29C93.51,387.41,110.55,369.19,109.59,356.31Z" style="opacity:0.2"></path><path d="M49.83,368.71c12.24-4.47,41.82-16.55,59.76-12.4L105,351.59S90,346.39,49.83,368.71Z" style="opacity:0.2"></path></g></g><g id="freepik--Cat--inject-23"><g id="freepik--Tail--inject-23"><path d="M393.78,288.23C411.38,284.71,428,272,432.28,251c5.43-26.3-17.53-45.58-35.27-57.8-11.35-7.82-29.14-23.37-20.66-39.62,5.83-11.19,21.5-13.73,29.31-10.49a6.61,6.61,0,1,0,5.06-12.22c-12.86-5.34-36.62-1.6-46.11,16.59-4.81,9.24-5,19.34-.56,29.19,4.3,9.54,12.86,18.77,25.46,27.44,30.56,21.06,31.65,35.33,29.81,44.24-4.11,19.91-23.6,29.56-40.06,27.38a6.62,6.62,0,1,0-1.74,13.12A50.07,50.07,0,0,0,393.78,288.23Z" style="fill:#37474f"></path></g><g id="freepik--Pumpkin--inject-23"><g id="freepik--Pumpking--inject-23"><g id="freepik--pumpking--inject-23"><path d="M313.81,201.85c-37.62,12.54-69.31,32.77-69.81,34.3,0,0-36.69-22.7-66.39-33.61C193.26,190,208,185.61,240.46,184.15,274.45,182.63,300.73,187.32,313.81,201.85Z" style="fill:#8AFF00"></path><path d="M313.81,201.85c-37.62,12.54-69.31,32.77-69.81,34.3,0,0-36.69-22.7-66.39-33.61C193.26,190,208,185.61,240.46,184.15,274.45,182.63,300.73,187.32,313.81,201.85Z" style="opacity:0.25"></path><path d="M279.65,185.94c.1.05,6.44,3.34,2.78,6.33s-30.3,10.81-43,9.19-31.47-9.07-27.87-14.38c-14.21,2.71-23.87,7.39-33.91,15.46,29.7,10.91,66.4,33.65,66.39,33.61.5-1.53,32.19-21.76,69.81-34.3C306.36,193.58,294.64,188.5,279.65,185.94Z" style="opacity:0.1"></path><g id="freepik--pumpkin--inject-23"><path d="M242.9,237.25s57.83-17,101.69,8.72c13.77,8.08,37.28,39.81,42.22,73.49,12.38-82.62-47.7-129.3-102.63-120.91C247.47,204.16,242.65,225.31,242.9,237.25Z" style="fill:#8AFF00"></path><path d="M242.9,237.25s57.83-17,101.69,8.72c13.77,8.08,37.28,39.81,42.22,73.49,12.38-82.62-47.7-129.3-102.63-120.91C247.47,204.16,242.65,225.31,242.9,237.25Z" style="opacity:0.1"></path><path d="M386.81,319.46c2.7-18,1.95-34.35-1.44-48.76-1,4.82-3,6.55-5.69,1.29-4.77-9.31-7.74-19-27.28-36.77s-47.87-20.68-66.28-22.49-11.33-9.06-1.94-14.18c-36.71,5.61-41.53,26.76-41.28,38.7,0,0,57.83-17,101.69,8.72C358.36,254.05,381.87,285.78,386.81,319.46Z" style="opacity:0.1"></path></g><g id="freepik--pumpkin--inject-23"><path d="M248.09,237.83s-57.84-17-101.69,8.72c-13.78,8.08-37.67,50.39-42.62,84.07-12.84-37.95,7.79-88.47,30.62-109.19,20-18.14,46.76-26.22,72.4-22.31C243.52,204.73,248.33,225.89,248.09,237.83Z" style="fill:#8AFF00"></path><path d="M248.09,237.83s-57.84-17-101.69,8.72c-13.78,8.08-37.67,50.39-42.62,84.07-12.84-37.95,7.79-88.47,30.62-109.19,20-18.14,46.76-26.22,72.4-22.31C243.52,204.73,248.33,225.89,248.09,237.83Z" style="opacity:0.1"></path><path d="M206.8,199.12a86.4,86.4,0,0,0-38.5,2.95c16.65-3.42,46.31-.3,39.71,6.08s-32.63,3.72-55.89,17c-35.4,20.2-37.42,48.82-42.77,49.5-3.72.48-.47-11.84,1.85-19.35-10.42,23.16-15.42,51.69-7.42,75.33,5-33.68,28.84-76,42.62-84.07,43.85-25.73,101.69-8.72,101.69-8.72C248.33,225.89,243.52,204.73,206.8,199.12Z" style="opacity:0.1"></path></g><path d="M348.25,243.69c-28.08-21.87-52.74-24-75.83-16.51-20.11,6.58-3.6,6.43,1.7,10.41,4.05,2.45,26.06,14.11,30.16,17.18,25.94,19.37,42.39,64.35,44.24,85.5,1.53,17.5,1.12,43.34-9.21,63.56,17.9-4.93,41.77-21,46.51-52.09C392.91,305.28,376.32,265.56,348.25,243.69Z" style="fill:#8AFF00"></path><path d="M385.82,351.74c.4-2.59.71-5.15,1-7.7-7.83,29.37-19.65,29.06-23.33,26.77s1.57-25.68-2.62-47.6-19-50.39-34.2-65.53-36.23-18.84-35.44-25.62,20.38-7,37.8-.64c-20.32-10.06-38.91-10-56.57-4.24-20.11,6.58-3.6,6.43,1.7,10.41,4.05,2.45,26.06,14.11,30.16,17.18,25.94,19.37,42.39,64.35,44.24,85.5,1.53,17.5,1.12,43.34-9.21,63.56C357.21,398.9,381.08,382.8,385.82,351.74Z" style="opacity:0.1"></path><path d="M240.92,234s22.79,20.21,34.29,44.49c17.56,37.09,25.19,80.73,18.43,114.28-3.21,16.06-6.52,28.36-14,37,9.17,5.19,35.48,4.9,51.75-14a58.34,58.34,0,0,0,7.92-11.95c10.33-20.22,12.58-46.62,11.06-64.12-1.86-21.14-5.23-56.36-40.9-83C283.61,237.32,252.22,228.36,241,234Z" style="fill:#8AFF00"></path><path d="M240.92,234s22.79,20.21,34.29,44.49c17.56,37.09,25.19,80.73,18.43,114.28-3.21,16.06-6.52,28.36-14,37,9.17,5.19,35.48,4.9,51.75-14a58.34,58.34,0,0,0,7.92-11.95c10.33-20.22,12.58-46.62,11.06-64.12-1.86-21.14-5.23-56.36-40.9-83C283.61,237.32,252.22,228.36,241,234Z" style="fill:#fff;opacity:0.15"></path><path d="M331.9,394.57c-18.61,17.84-31.66,16.25-31.66,16.25,17.23-37.3,4-77.74-8.31-103.87l-4.09,5c8.13,28.07,10.6,57,5.8,80.85-3.21,16.06-6.52,28.36-14,37,9.17,5.19,35.48,4.9,51.75-14a58.34,58.34,0,0,0,7.92-11.95c9.42-18.45,12.11-42,11.36-59.3C350.62,347.12,349.71,377.49,331.9,394.57Z" style="opacity:0.05"></path><path d="M143,243.69c28.07-21.87,52.74-24,75.83-16.51,20.1,6.58,3.59,6.43-1.71,10.41C213.06,240,191.05,251.7,187,254.77c-26,19.37-42.39,64.35-44.25,85.5-1.53,17.5-1.11,43.34,9.22,63.56-17.9-4.93-41.78-21-46.52-52.09C98.32,305.28,114.91,265.56,143,243.69Z" style="fill:#8AFF00"></path><path d="M218.82,227.18c-14.81-4.81-30.26-5.64-46.85.13,14.73-3.58,31.86,1.26,25.77,7.91s-38.19,10-55.24,52.86-6.69,74-8.87,86.39-23.74-1.67-29.53-34.78q.39,5.94,1.31,12.05c4.74,31.06,28.62,47.16,46.52,52.09-10.33-20.22-10.75-46.06-9.22-63.56,1.86-21.15,18.3-66.13,44.25-85.5,4.09-3.07,26.1-14.73,30.15-17.18C222.41,233.61,238.92,233.76,218.82,227.18Z" style="opacity:0.1"></path><path d="M250.31,234S227.52,254.25,216,278.53c-17.57,37.09-25.19,80.73-18.43,114.28,3.21,16.06,6.51,28.36,14,37-9.16,5.19-35.47,4.9-51.75-14a58.7,58.7,0,0,1-7.91-11.95c-10.33-20.22-12.59-46.62-11.06-64.12,1.85-21.14,5.45-59.6,41.12-86.28,25.86-19.35,57-25.07,68.28-19.44Z" style="fill:#8AFF00"></path><path d="M250.31,234S227.52,254.25,216,278.53c-17.57,37.09-25.19,80.73-18.43,114.28,3.21,16.06,6.51,28.36,14,37-9.16,5.19-35.47,4.9-51.75-14a58.7,58.7,0,0,1-7.91-11.95c-10.33-20.22-12.59-46.62-11.06-64.12,1.85-21.14,5.45-59.6,41.12-86.28,25.86-19.35,57-25.07,68.28-19.44Z" style="fill:#fff;opacity:0.15"></path><path d="M159.33,394.57C177.94,412.41,191,410.82,191,410.82c-17.23-37.3-4-77.74,8.31-103.87l4.08,5c-8.13,28.07-10.6,57-5.79,80.85,3.21,16.06,6.51,28.36,14,37-9.16,5.19-35.47,4.9-51.75-14a58.7,58.7,0,0,1-7.91-11.95c-9.43-18.45-12.12-42-11.36-59.3C140.62,347.12,141.53,377.49,159.33,394.57Z" style="opacity:0.05"></path><path d="M193.26,356.72c-.44,21.75,3.23,54.15,14.46,69.28s25.06,20.23,39,19.9c12.46-.33,23.9-5.56,32.89-16.08,7.48-8.65,13.22-21,16.43-37.05,6.76-33.55,2-78.67-14.79-116.15-19-42.26-39.79-38.68-39.79-38.68s-12.91-1.33-32.16,37.61C201.47,291.44,193.81,326.93,193.26,356.72Z" style="fill:#8AFF00"></path><path d="M193.26,356.72c-.44,21.75,3.23,54.15,14.46,69.28s25.06,20.23,39,19.9c12.46-.33,23.9-5.56,32.89-16.08,7.48-8.65,13.22-21,16.43-37.05,6.76-33.55,2-78.67-14.79-116.15-19-42.26-39.79-38.68-39.79-38.68s-12.91-1.33-32.16,37.61C201.47,291.44,193.81,326.93,193.26,356.72Z" style="fill:#fff;opacity:0.30000000000000004"></path><path d="M298.58,373.81c-3.47,21.61-19.14,47.61-46.3,55.25-27.51,7.74-49-13-54.79-28.44,2.3,10.08,5.63,19.18,10.23,25.38,11.24,15.14,25.06,20.23,39,19.9,12.46-.33,23.9-5.56,32.89-16.08,7.48-8.65,13.22-21,16.43-37.05A149.22,149.22,0,0,0,298.58,373.81Z" style="opacity:0.05"></path></g></g><ellipse cx="246.13" cy="248.37" rx="102.43" ry="59.14" style="fill:#8AFF00"></ellipse><ellipse cx="246.13" cy="248.37" rx="102.43" ry="59.14" style="fill:#fff;opacity:0.35000000000000003"></ellipse><ellipse cx="246.13" cy="245.92" rx="92.44" ry="50.92" style="fill:#8AFF00"></ellipse><ellipse cx="246.13" cy="245.92" rx="92.44" ry="50.92" style="opacity:0.2"></ellipse><path d="M271.23,408.61c-.44-2.83-.87-5.51-.87-5.51-4.22.38-6.34.53-10.57.75l-1.9,9.34a65.12,65.12,0,0,1-11.75,1c-18.74.1-42.16-10.18-41.43-32.07,4.83.75,7.25,1.07,12.11,1.6.51,3.66,1.46,9.73,1.46,9.73,4.23.44,6.35.61,10.58.89l1.95-9.45a262.92,262.92,0,0,0,56.75-2.77A29.65,29.65,0,0,1,271.23,408.61Z" style="fill:#8AFF00"></path><path d="M271.23,408.61c-.44-2.83-.87-5.51-.87-5.51-4.22.38-6.34.53-10.57.75l-1.9,9.34a65.12,65.12,0,0,1-11.75,1c-18.74.1-42.16-10.18-41.43-32.07,4.83.75,7.25,1.07,12.11,1.6.51,3.66,1.46,9.73,1.46,9.73,4.23.44,6.35.61,10.58.89l1.95-9.45a262.92,262.92,0,0,0,56.75-2.77A29.65,29.65,0,0,1,271.23,408.61Z" style="opacity:0.1"></path><polygon points="257.89 402.79 257.89 413.19 259.79 403.85 259.79 393.45 257.89 402.79" style="opacity:0.30000000000000004"></polygon><polygon points="270.36 392.7 270.36 403.1 271.23 408.61 271.23 398.21 270.36 392.7" style="opacity:0.30000000000000004"></polygon><path d="M230.81,384.92l-1.95,9.45c-4.23-.28-6.35-.45-10.58-.89,0,0-.95-6.07-1.46-9.73-4.22-.46-6.6-.76-10.32-1.33,5.76,14.57,24.27,21.49,39.64,21.41a66,66,0,0,0,11.75-1l1.9-9.34c4.23-.22,6.35-.36,10.57-.75,0,0,.43,2.68.87,5.51a29.44,29.44,0,0,0,14.32-15.78A261.79,261.79,0,0,1,230.81,384.92Z" style="fill:#263238"></path><path d="M181,363.94c9.52,4.95,23.19,5.11,27.75-6.82a10.25,10.25,0,0,1-5.77.66,14.37,14.37,0,0,1-11.53-13.67c0-6.38,5.14-10.44,11.53-9.4a14,14,0,0,1,7,3.4A31.15,31.15,0,0,0,194,318c-12-6-26.6,1.25-30,13.31C160.39,344.18,169.51,358,181,363.94Z" style="fill:#263238"></path><path d="M181,363.94c9.52,4.95,23.19,5.11,27.75-6.82a10.25,10.25,0,0,1-5.77.66,14.37,14.37,0,0,1-11.53-13.67c0-6.38,5.14-10.44,11.53-9.4a14,14,0,0,1,7,3.4A31.15,31.15,0,0,0,194,318c-12-6-26.6,1.25-30,13.31C160.39,344.18,169.51,358,181,363.94Z" style="fill:#8AFF00"></path><path d="M181,363.94c9.52,4.95,23.19,5.11,27.75-6.82a10.25,10.25,0,0,1-5.77.66,14.37,14.37,0,0,1-11.53-13.67c0-6.38,5.14-10.44,11.53-9.4a14,14,0,0,1,7,3.4A31.15,31.15,0,0,0,194,318c-12-6-26.6,1.25-30,13.31C160.39,344.18,169.51,358,181,363.94Z" style="opacity:0.2"></path><path d="M187.19,359.17c5.54,2.88,15.54,3.86,20.81-.33a16,16,0,0,0,.77-1.72,10.25,10.25,0,0,1-5.77.66,14.37,14.37,0,0,1-11.53-13.67c0-6.38,5.14-10.44,11.53-9.4a14,14,0,0,1,7,3.4A31.15,31.15,0,0,0,194,318a21,21,0,0,0-18.44,0,20.14,20.14,0,0,0-2.77,5.89C169.16,336.76,175.68,353.19,187.19,359.17Z" style="fill:#263238"></path><path d="M311.23,363.94c-9.51,4.95-23.19,5.11-27.75-6.82a10.26,10.26,0,0,0,5.77.66,14.37,14.37,0,0,0,11.53-13.67c0-6.38-5.14-10.44-11.53-9.4a14,14,0,0,0-7,3.4A31.18,31.18,0,0,1,298.29,318c12-6,26.6,1.25,30,13.31C331.86,344.18,322.75,358,311.23,363.94Z" style="fill:#263238"></path><path d="M311.23,363.94c-9.51,4.95-23.19,5.11-27.75-6.82a10.26,10.26,0,0,0,5.77.66,14.37,14.37,0,0,0,11.53-13.67c0-6.38-5.14-10.44-11.53-9.4a14,14,0,0,0-7,3.4A31.18,31.18,0,0,1,298.29,318c12-6,26.6,1.25,30,13.31C331.86,344.18,322.75,358,311.23,363.94Z" style="fill:#8AFF00"></path><path d="M311.23,363.94c-9.51,4.95-23.19,5.11-27.75-6.82a10.26,10.26,0,0,0,5.77.66,14.37,14.37,0,0,0,11.53-13.67c0-6.38-5.14-10.44-11.53-9.4a14,14,0,0,0-7,3.4A31.18,31.18,0,0,1,298.29,318c12-6,26.6,1.25,30,13.31C331.86,344.18,322.75,358,311.23,363.94Z" style="opacity:0.2"></path><path d="M305.06,359.17c-5.53,2.88-15.54,3.86-20.81-.33a16,16,0,0,1-.77-1.72,10.26,10.26,0,0,0,5.77.66,14.37,14.37,0,0,0,11.53-13.67c0-6.38-5.14-10.44-11.53-9.4a14,14,0,0,0-7,3.4A31.18,31.18,0,0,1,298.29,318a21,21,0,0,1,18.44,0,20.14,20.14,0,0,1,2.77,5.89C323.09,336.76,316.57,353.19,305.06,359.17Z" style="fill:#263238"></path></g><g id="freepik--cat--inject-23"><g id="freepik--Paw--inject-23"><path d="M130.74,319c.1-7.92,3.75-22.46,9.7-31.39,9.91-14.89,22.75-25.16,40.93-36.7l38.56,33.78c-41.26-.22-54.84,21.88-58.31,34.1-2.4,8.43-4.44,14.95-9.32,15.09a5,5,0,0,1-5.4-4c-3.28,3.29-8.38,1.54-8.71-2.57a4.34,4.34,0,0,1-5.2-.78C131,324.56,130.71,321.81,130.74,319Z" style="fill:#37474f"></path><path d="M133,326.53l-.08-.09c1.64.51,3.1-.21,3.89-2.25,1.22-3.19,1.57-4.68,2.27-5.41,0,0-1.37,5-.88,8.53A4.34,4.34,0,0,1,133,326.53Z" style="fill:#263238"></path><path d="M141.27,331.3c2-.13,3.45-1.6,4.08-4,.89-3.35,1.46-4.4,2.15-5.13a23,23,0,0,0-.6,7.69A5.37,5.37,0,0,1,141.27,331.3Z" style="fill:#263238"></path></g><g id="freepik--paw--inject-23"><path d="M246.31,352.21c-3.72-6.63-6.64-18.06-6.43-28.36.35-17.6,3.22-27.71,9.5-40.67l-5.66-8.11s42.46-18.34,60.35,5.82c-34.44,19.6-35.14,44.5-32.17,56.33,2.05,8.18,3.48,14.58-.52,17a4.75,4.75,0,0,1-6.41-.76c-1.16,4.31-6.24,5.3-8.48,2a4.17,4.17,0,0,1-4.71,1.84C249.19,356.7,247.62,354.55,246.31,352.21Z" style="fill:#37474f"></path><path d="M251.78,357.38l-.11,0c1.61-.37,2.49-1.66,2.16-3.74-.51-3.24-.93-4.65-.71-5.59,0,0,1.24,4.77,3.37,7.52A4.17,4.17,0,0,1,251.78,357.38Z" style="fill:#263238"></path><path d="M261,357.38c1.57-1.05,2.1-3,1.49-5.27-.87-3.21-.89-4.36-.67-5.3A22,22,0,0,0,265,353.5,5.15,5.15,0,0,1,261,357.38Z" style="fill:#263238"></path></g><path d="M168.55,273.62a74.06,74.06,0,0,0,12.22,8.31c36.1,19.88,94.63,19.88,130.73,0a77.14,77.14,0,0,0,10.32-6.78c-2.74-1.74-5.07-3.2-6.6-4.14-13.87-8.43-19.71-9.79-20.92-17.7l-108.73-9.8Z" style="fill:#37474f"></path><path d="M294.3,253.31l-106-6.57L176.6,254c3.17,10.77,27.83,30,57.22,31.26,36.67,1.61,50.5-10.27,63.33-25.76A12.49,12.49,0,0,1,294.3,253.31Z" style="fill:#263238"></path><path d="M186.61,253.31s8,16.83,48.21,18.21c46.34,1.6,55.66-16.71,55.66-16.71Z" style="fill:#8AFF00"></path><path d="M186.61,253.31s8,16.83,48.21,18.21c46.34,1.6,55.66-16.71,55.66-16.71Z" style="opacity:0.25"></path><g id="freepik--Skull--inject-23"><path d="M219.8,285.94c-.49-2.11-1.68-2.56-2.77-7.23-1-4.24.62-13.77,12-15.72s18.41,3.29,19.8,10.28-2.25,11.09-5.69,12.93c-2,1.06-2.61,2-3.32,4.38-.63,2.19-1.31,3.11-3.29,2.65-2.23-.53-1-3.07-3-3.38-1.55-.24-1,3.19-4.17,2.9-2.2-.21-2.17-3.18-3.48-3.48-2.06-.48-2.18,2.53-4.09,2.06S220.26,287.93,219.8,285.94Z" style="fill:#fafafa"></path><path d="M248.87,273.27c-1.39-7-8.38-12.24-19.8-10.28-6.47,1.11-9.79,4.64-11.27,8.27,3.56-4.29,13-6.68,21.6-3.74s8.32,11.64,6.73,14.74a14.94,14.94,0,0,1-3.56,4.3l.61-.36C246.62,284.36,250.26,280.27,248.87,273.27Z" style="fill:#e0e0e0"></path><path d="M230.43,280.68c-2.06-.07-4,4.05-3,4.49s1.36-.7,2.66-.51c.75.12,1.76,1.68,2.66,1.17S232.22,280.73,230.43,280.68Z" style="fill:#263238"></path><path d="M236.2,273.83c-2.08,1.26-2.32,5.54.16,7.34s6.69,1.43,7-1.62C243.68,276.28,239.17,272,236.2,273.83Z" style="fill:#263238"></path><path d="M226,273c1.81,1.07,2,4.78-.09,6.36s-5.79,1.29-6.07-1.36C219.55,275.15,223.44,271.45,226,273Z" style="fill:#263238"></path></g><path d="M277.43,161.54c34.33-2.86,59.57,25.89,55.3,36.37-3.1,7.6-45.8,1.9-45.8,1.9S263.24,174,277.43,161.54Z" style="fill:#263238"></path><path d="M293.47,175.23a84,84,0,0,0-6.54,24.58s42.33,5.54,45.8-1.9C333.88,193.05,320.21,174.24,293.47,175.23Z" style="fill:#ffa8a7"></path><path d="M302.24,198.36a17.06,17.06,0,0,1,4.42-1.66c1.85-1.28,4-2.79,6.18-4.43-1.57-4-6-6.89-6-6.89,2.15-2.92,6.83-4.23,6.83-4.23-2.35-3-12.25-6.11-18.07-1.07,0,0,.25,7.16.56,11.15.91,2.11,1.8,4,2.55,5.45A8.07,8.07,0,0,0,302.24,198.36Z" style="fill:#f28f8f"></path><path d="M296.11,180.44c4.87-2.69,14-.14,16.34,2.86,0,0-4.68,1.3-6.82,4.23,0,0,8.67,5.53,6.11,12,0,0-3.91-2.65-11,1.08C290.68,198.45,296.11,180.44,296.11,180.44Z" style="fill:#37474f"></path><path d="M205.58,160.53c-32-12.81-64.54,7.26-63.53,18.53.72,8.18,43.22,15.27,43.22,15.27S215.48,176.63,205.58,160.53Z" style="fill:#263238"></path><path d="M186.23,168.91a84.19,84.19,0,0,1-1,25.42s-42.1-7.14-43.22-15.27C142.37,174.07,161,160.11,186.23,168.91Z" style="fill:#ffa8a7"></path><path d="M171.06,188.44a17.1,17.1,0,0,0-3.74-2.88c-1.4-1.77-3-3.84-4.6-6.05,2.67-3.39,7.79-4.81,7.79-4.81-1.19-3.42-5.28-6-5.28-6,3.13-2.17,13.5-2.24,17.59,4.28,0,0-2.34,6.77-3.81,10.5-1.49,1.74-2.88,3.25-4,4.45A7.94,7.94,0,0,1,171.06,188.44Z" style="fill:#f28f8f"></path><path d="M182.18,173.11c-3.86-4-13.34-4.24-16.46-2.06,0,0,4.09,2.62,5.28,6,0,0-9.92,2.75-9.37,9.7,0,0,4.51-1.39,10.15,4.25C182.08,191.92,182.18,173.11,182.18,173.11Z" style="fill:#37474f"></path><path d="M232,265.52c61.48,5.61,85.59-31.09,85.59-31.09L314,230l9.27-5.87s-.46-5.43-18.06-34.85-38.47-39.3-63.85-41.25-47.5,4.63-69.38,31-23.17,31.68-23.17,31.68l8.27,7.22-4.27,3.87S170.51,259.92,232,265.52Z" style="fill:#37474f"></path><path d="M227.59,148.75c2-7.28-1.07-12.24-1.75-15s8.46-.78,13.72,5.4,6.23,10.16,6.23,10.16Z" style="fill:#37474f"></path><path d="M254.26,153.34c.78-5.66,4.41-8.17,5.7-9.86s-5.64-3.08-11.14-.36-7.36,5.19-7.36,5.19Z" style="fill:#37474f"></path><path d="M233.39,257.33c-34-2.45-37.3-22.27-31.44-32.29s18.39-15.58,34.64-14.41,27.9,8.48,32.33,19.25S267.36,259.78,233.39,257.33Z" style="fill:#455a64"></path><path d="M216.25,232.33c-.12,2.3-.35,4,1.26,3.82s3.39-3.09,3.39-3.09Z" style="fill:#fff"></path><path d="M253.09,234.94c-.23,2.29-.27,4-1.83,3.58s-2.87-3.57-2.87-3.57Z" style="fill:#fff"></path><path d="M190.62,192.15a15.13,15.13,0,0,0,8.63,17.73c6,2.56,12.92,1,18.09-4.51,1.23-8.66-4.61-15.77-11-17.22S195.67,188.74,190.62,192.15Z" style="fill:#8AFF00"></path><path d="M215.39,201.4a8.92,8.92,0,1,1-6.84-10.52A8.87,8.87,0,0,1,215.39,201.4Z" style="fill:#263238"></path><path d="M201.36,194.72a3.18,3.18,0,1,1-2.88-3.45A3.18,3.18,0,0,1,201.36,194.72Z" style="fill:#fff"></path><path d="M200.34,200.63c-.05-.29-.52-.66-.84-.81a7.18,7.18,0,0,0-1.16-.46,4.86,4.86,0,0,0-2.9,0,1.92,1.92,0,0,0-1.15,1.69,1.12,1.12,0,0,0,.24.91,1.51,1.51,0,0,0,.93.24,5.24,5.24,0,0,0,1.76-.63,10.46,10.46,0,0,1,2.6-.6C200.25,201,200.38,200.81,200.34,200.63Z" style="fill:#fff"></path><path d="M188,211.4l.11-.05a1.3,1.3,0,0,0,.49-1.7c-3.26-6.54-9.68-14.22-21.79-13.72a1.27,1.27,0,0,0,.11,2.53c10.87-.45,16.65,6.47,19.58,12.36A1.16,1.16,0,0,0,188,211.4Z" style="fill:#263238"></path><path d="M184.37,214.14a1.08,1.08,0,0,0,.34-.23,1.31,1.31,0,0,0,.09-1.78c-3.67-4.39-11.43-6.84-16.1-6.28a1.27,1.27,0,0,0,.29,2.51c4.07-.48,10.95,1.74,14,5.44A1.16,1.16,0,0,0,184.37,214.14Z" style="fill:#263238"></path><path d="M184.45,219.35a1.18,1.18,0,0,0,.53-.53,1.31,1.31,0,0,0-.48-1.72c-5-3-14.13-4.19-22.4.1a1.28,1.28,0,0,0-.52,1.69,1.16,1.16,0,0,0,1.57.59h0c7.5-3.91,15.7-2.82,20.19-.16A1.15,1.15,0,0,0,184.45,219.35Z" style="fill:#263238"></path><path d="M284.87,218.41l-.1-.07a1.3,1.3,0,0,1-.21-1.76c4.27-5.92,11.86-12.46,23.73-10a1.23,1.23,0,0,1,.9,1.48,1.25,1.25,0,0,1-1.43,1c-10.65-2.21-17.47,3.68-21.32,9A1.15,1.15,0,0,1,284.87,218.41Z" style="fill:#263238"></path><path d="M288,221.69a1.06,1.06,0,0,1-.29-.27,1.32,1.32,0,0,1,.2-1.78c4.33-3.74,12.39-4.89,16.9-3.59a1.23,1.23,0,0,1,.8,1.55,1.21,1.21,0,0,1-1.48.88c-4-1.13-11.1,0-14.75,3.1A1.15,1.15,0,0,1,288,221.69Z" style="fill:#263238"></path><path d="M287.05,226.82a1.18,1.18,0,0,1-.44-.6,1.32,1.32,0,0,1,.75-1.62c5.44-2.12,14.63-1.85,22.09,3.72a1.29,1.29,0,0,1,.25,1.75,1.18,1.18,0,0,1-1.65.34l0,0c-6.77-5.07-15-5.33-19.9-3.44A1.1,1.1,0,0,1,287.05,226.82Z" style="fill:#263238"></path><path d="M203.39,184a12.16,12.16,0,0,0-2.47-1,14.67,14.67,0,0,0-6-.7,3.55,3.55,0,0,0-1.61.43c-.64.49.18,1.35.73,1.43a2.68,2.68,0,0,0,.75,0,21.49,21.49,0,0,1,4.63-.22c1.34.09,2.64.2,4,.41C203.55,184.3,203.47,184,203.39,184Z" style="fill:#455a64"></path><path d="M207.77,183.61a12.54,12.54,0,0,0-1.62-2.14,15,15,0,0,0-4.82-3.62,3.61,3.61,0,0,0-1.6-.43c-.81.1-.53,1.26-.09,1.6a2.64,2.64,0,0,0,.66.36,22.63,22.63,0,0,1,4.11,2.14c1.11.75,2.18,1.5,3.21,2.35C207.74,184,207.81,183.69,207.77,183.61Z" style="fill:#455a64"></path><path d="M282.45,198.07a15.14,15.14,0,0,1-10.84,16.48c-6.26,1.76-12.94-.65-17.36-6.8-.11-8.75,6.6-15.05,13.07-15.68S277.88,194,282.45,198.07Z" style="fill:#8AFF00"></path><ellipse cx="265.58" cy="203.31" rx="8.91" ry="8.83" transform="translate(-16.22 23.15) rotate(-4.84)" style="fill:#263238"></ellipse><path d="M271.4,199.09a3.17,3.17,0,1,0,3.29-3.05A3.18,3.18,0,0,0,271.4,199.09Z" style="fill:#fff"></path><path d="M271.64,205.08c.09-.27.61-.58.94-.69a7.16,7.16,0,0,1,1.21-.31,4.91,4.91,0,0,1,2.88.4,2,2,0,0,1,.92,1.83c0,.29-.09.72-.36.88a1.55,1.55,0,0,1-1,.11,5.39,5.39,0,0,1-1.67-.85,10.52,10.52,0,0,0-2.49-.93C271.7,205.42,271.59,205.26,271.64,205.08Z" style="fill:#fff"></path><path d="M270.83,188.32a12.11,12.11,0,0,1,2.59-.71,14.89,14.89,0,0,1,6,.07,3.47,3.47,0,0,1,1.53.64c.58.56-.35,1.31-.9,1.32a2.73,2.73,0,0,1-.75-.12,21.87,21.87,0,0,0-4.56-.81c-1.34-.08-2.64-.14-4-.1C270.63,188.62,270.75,188.35,270.83,188.32Z" style="fill:#455a64"></path><path d="M266.54,187.4a11.77,11.77,0,0,1,1.88-1.92,14.9,14.9,0,0,1,5.24-3,3.55,3.55,0,0,1,1.64-.22c.79.2.36,1.31-.11,1.59a2.56,2.56,0,0,1-.71.28,21.88,21.88,0,0,0-4.35,1.6c-1.19.6-2.35,1.21-3.48,1.92C266.52,187.76,266.48,187.47,266.54,187.4Z" style="fill:#455a64"></path><path d="M235.94,222a9.43,9.43,0,0,1-1.81,6.93A12.38,12.38,0,0,1,228,233.1a16.91,16.91,0,0,1-7.26.67,12.38,12.38,0,0,1-6.61-2.7,18.68,18.68,0,0,0,6.71,1.19,21,21,0,0,0,6.56-1A13.18,13.18,0,0,0,233,228,11.87,11.87,0,0,0,235.94,222Z" style="fill:#263238"></path><path d="M235.94,222a11.84,11.84,0,0,0,2.06,6.33,13.28,13.28,0,0,0,5,4.09,20.87,20.87,0,0,0,6.34,2,18.63,18.63,0,0,0,6.81-.19,12.41,12.41,0,0,1-6.93,1.7,16.76,16.76,0,0,1-7.09-1.73,12.34,12.34,0,0,1-5.41-5A9.37,9.37,0,0,1,235.94,222Z" style="fill:#263238"></path><path d="M235.81,223.35l-6.41-4.08s1.23-3.07,6.83-2.83,6.4,3.55,6.4,3.55Z" style="fill:#263238"></path></g><g id="freepik--Top--inject-23"><path d="M197.14,74c-2.2.64-4.37,1.34-6.49,2.08s-4,1.49-6,2.31c6.19,2.81,12.62,6.13,18.89,9.61,14.73,8.17,28.59,17.2,36.48,22.49,1.9,1.28,3.45,2.34,4.59,3.12h0l1.1.75,1,.72c.11-.29,1.56-1.28,4.08-2.73l.11-.07h0c.36-.22.75-.44,1.16-.66h0a295.56,295.56,0,0,1,38.11-17.31c8-3,16.66-5.94,25.69-8.43A120.41,120.41,0,0,0,303.77,80h0a143.32,143.32,0,0,0-16.85-5.78h0a174.82,174.82,0,0,0-67.71-4.78,145.08,145.08,0,0,0-22,4.55Z" style="fill:#8AFF00"></path><path d="M197.14,74c-2.2.64-4.37,1.34-6.49,2.08s-4,1.49-6,2.31c6.19,2.81,12.62,6.13,18.89,9.61,14.73,8.17,28.59,17.2,36.48,22.49,1.9,1.28,3.45,2.34,4.59,3.12h0l1.1.75,1,.72c.11-.29,1.56-1.28,4.08-2.73l.11-.07h0c.36-.22.75-.44,1.16-.66h0a295.56,295.56,0,0,1,38.11-17.31c8-3,16.66-5.94,25.69-8.43A120.41,120.41,0,0,0,303.77,80h0a143.32,143.32,0,0,0-16.85-5.78h0a174.82,174.82,0,0,0-67.71-4.78,145.08,145.08,0,0,0-22,4.55Z" style="opacity:0.25"></path><path d="M197.14,74c-2.2.64-4.37,1.34-6.49,2.08s-4,1.49-6,2.31c6.19,2.81,12.62,6.13,18.89,9.61,14.73,8.17,28.59,17.2,36.48,22.49,1.9,1.28,3.45,2.34,4.59,3.12h0l1.1.75,1,.72c.11-.29,1.56-1.28,4.08-2.73l.11-.07h0c.36-.22.75-.44,1.16-.66h0a295.56,295.56,0,0,1,38.11-17.31c8-3,16.66-5.94,25.69-8.43A120.41,120.41,0,0,0,303.77,80h0a143.32,143.32,0,0,0-16.85-5.78h0c-6.17,3-30.73,8.23-42.57,6-8.72-1.67-20.27-6.35-25.14-10.76a145.08,145.08,0,0,0-22,4.55Z" style="opacity:0.1"></path><g id="freepik--pumpkin--inject-23"><path d="M350.36,134.12a32.86,32.86,0,0,0-3.78-3c-16.43-11.06-35.38-15.78-52.39-17.42a172.23,172.23,0,0,0-30.47-.1h0l-1.1.09c-4.68.43-8.59,1-11.48,1.43l-.24,0c-1.63.27-2.91.5-3.81.68l-.31.06-1.13.24c0-.24,0-.48,0-.73s0-.43,0-.65,0-.26,0-.38c0-.74.14-1.5.25-2.28,0-.35.1-.7.17-1.06a34.55,34.55,0,0,1,2.8-8.91c4.73-9.92,15.67-19.86,40.26-22.07a83.94,83.94,0,0,1,14.53,0h0A120.41,120.41,0,0,1,316,85.89q3.66,2,7.07,4.28c10.26,6.79,17.62,14.44,22.12,22.38a39.28,39.28,0,0,1,5.21,16.5h0A32.87,32.87,0,0,1,350.36,134.12Z" style="fill:#8AFF00"></path><path d="M350.36,134.12a32.86,32.86,0,0,0-3.78-3c-16.43-11.06-35.38-15.78-52.39-17.42a172.23,172.23,0,0,0-30.47-.1h0l-1.1.09c-4.68.43-8.59,1-11.48,1.43l-.24,0c-1.63.27-2.91.5-3.81.68l-.31.06-1.13.24c0-.24,0-.48,0-.73s0-.43,0-.65,0-.26,0-.38c0-.74.14-1.5.25-2.28,0-.35.1-.7.17-1.06a34.55,34.55,0,0,1,2.8-8.91c4.73-9.92,15.67-19.86,40.26-22.07a83.94,83.94,0,0,1,14.53,0h0A120.41,120.41,0,0,1,316,85.89q3.66,2,7.07,4.28c10.26,6.79,17.62,14.44,22.12,22.38a39.28,39.28,0,0,1,5.21,16.5h0A32.87,32.87,0,0,1,350.36,134.12Z" style="opacity:0.1"></path><path d="M350.36,134.12a32.86,32.86,0,0,0-3.78-3c-16.43-11.06-35.38-15.78-52.39-17.42a172.23,172.23,0,0,0-30.47-.1h0l-1.1.09c-4.68.43-8.59,1-11.48,1.43l-.24,0c-1.63.27-2.91.5-3.81.68l-.31.06-1.13.24c0-.24,0-.48,0-.73s0-.43,0-.65,0-.26,0-.38c0-.74.14-1.5.25-2.28,0-.35.1-.7.17-1.06a34.55,34.55,0,0,1,2.8-8.91c4.73-9.92,15.67-19.86,40.26-22.07-9.7,4.54-17.21,11.33,1,14.27,15.22,2.46,37.3,6.12,54.88,18.23a39.28,39.28,0,0,1,5.21,16.5h0A32.87,32.87,0,0,1,350.36,134.12Z" style="opacity:0.1"></path></g><g id="freepik--pumpkin--inject-23"><path d="M197.14,74c-2.2.64-4.37,1.34-6.49,2.08s-4,1.49-6,2.31h0q-3.19,1.33-6.22,2.84c-10,5-17.66,10.89-23.06,17.4a0,0,0,0,1,0,0,40.59,40.59,0,0,0-8.66,16.94,33.37,33.37,0,0,0-.8,5.62,19.76,19.76,0,0,1,2.81-1.74c17.4-8.82,36.47-11.22,53.37-10.85a169.86,169.86,0,0,1,26,2.7h0c.54.1,1.06.19,1.58.3h0c6.76,1.27,12.25,2.72,15.92,3.79.31.1.6.19.88.26h0l.52.16c1,.29,1.75.55,2.35.74l1.35.46c0-.55.08-1.12.1-1.71a1,1,0,0,0,0-.17q0-1.34,0-2.79v-.1c0-.22,0-.44,0-.67a33.83,33.83,0,0,0-1.87-9.47C245.33,91.87,235.61,81,212,75.86A83.88,83.88,0,0,0,197.61,74l-.45,0Z" style="fill:#8AFF00"></path><path d="M197.14,74c-2.2.64-4.37,1.34-6.49,2.08s-4,1.49-6,2.31h0q-3.19,1.33-6.22,2.84c-10,5-17.66,10.89-23.06,17.4a0,0,0,0,1,0,0,40.59,40.59,0,0,0-8.66,16.94,33.37,33.37,0,0,0-.8,5.62,19.76,19.76,0,0,1,2.81-1.74c17.4-8.82,36.47-11.22,53.37-10.85a169.86,169.86,0,0,1,26,2.7h0c.54.1,1.06.19,1.58.3h0c6.76,1.27,12.25,2.72,15.92,3.79.31.1.6.19.88.26h0l.52.16c1,.29,1.75.55,2.35.74l1.35.46c0-.55.08-1.12.1-1.71a1,1,0,0,0,0-.17q0-1.34,0-2.79v-.1c0-.22,0-.44,0-.67a33.83,33.83,0,0,0-1.87-9.47C245.33,91.87,235.61,81,212,75.86A83.88,83.88,0,0,0,197.61,74l-.45,0Z" style="opacity:0.1"></path><path d="M250.76,117l-1.35-.46c-.6-.19-1.38-.45-2.35-.74l-.52-.16h0c-.28-.07-.57-.16-.88-.26-3.67-1.07-9.16-2.52-15.92-3.79h0c-.52-.11-1-.2-1.58-.3h0a169.86,169.86,0,0,0-26-2.7c-16.9-.37-36,2-53.37,10.85a19.76,19.76,0,0,0-2.81,1.74,33.37,33.37,0,0,1,.8-5.62,40.59,40.59,0,0,1,8.66-16.94,0,0,0,0,0,0,0l.37-.18c17.72-8.71,36.4-8.68,47.81-10.45,4.06-.63,7.19-1.5,9-3.07,4.87-4.16-8-7.83-21.95-8.85,2.12-.74,4.29-1.44,6.49-2.08l.47,0A83.88,83.88,0,0,1,212,75.86c23.66,5.12,33.38,16,37,26.26a33.83,33.83,0,0,1,1.87,9.47c0,.23,0,.45,0,.67v.1q0,1.45,0,2.79a1,1,0,0,1,0,.17C250.84,115.91,250.8,116.48,250.76,117Z" style="opacity:0.1"></path></g><path d="M350.36,134.12c-.59,8.33-4.24,16.47-10.89,23.81a58.75,58.75,0,0,1-7.24,6.72q-1.92,1.53-4,3c-5.94-11.78-13.44-22.64-22.39-30.22-3.9-3.31-33.31-15.36-37.2-18.05-2.69-2.29-6.3-3.88-6-5.67a1.18,1.18,0,0,1,.11-.35c.67-1.48,4.15-3.12,13-5.43a75.16,75.16,0,0,1,26-2.27c.51.05,1,.1,1.53.17l.25,0c.49.06,1,.12,1.47.2l.6.08c1.22.19,2.45.42,3.68.67l.26,0,1.88.44c.67.16,1.34.34,2,.52s1.17.33,1.75.51c.24.06.47.14.69.21.52.16,1,.32,1.54.5l.1,0c.68.22,1.36.47,2,.72,2,.74,4.09,1.61,6.14,2.59l1,.49c.69.34,1.38.68,2.07,1.05l1,.56c.7.38,1.39.76,2.09,1.16a113.33,113.33,0,0,1,18.45,13.43h0A32.87,32.87,0,0,1,350.36,134.12Z" style="fill:#8AFF00"></path><path d="M327.92,141.69a104.24,104.24,0,0,1,11.55,16.24,58.75,58.75,0,0,1-7.24,6.72q-1.92,1.53-4,3c-5.94-11.78-13.44-22.64-22.39-30.22-3.9-3.31-33.31-15.36-37.2-18.05-2.69-2.29-6.3-3.88-6-5.67a1.18,1.18,0,0,1,.11-.35c.67-1.48,4.15-3.12,13-5.43a75.16,75.16,0,0,1,26-2.27c.51.05,1,.1,1.53.17l.25,0c.49.06,1,.12,1.47.2l.6.08c1.22.19,2.45.42,3.68.67l.26,0,1.88.44c.67.16,1.34.34,2,.52s1.17.33,1.75.51c.24.06.47.14.69.21.52.16,1,.32,1.54.5l.1,0c.68.22,1.36.47,2,.72,2,.75,4.09,1.62,6.14,2.59l1,.49,2.07,1.05,1,.56c.7.38,1.39.76,2.09,1.16-16.79-7.3-36.09-8.38-37.72-1.93a1.69,1.69,0,0,0-.05.24C292.94,120.65,313.66,125.64,327.92,141.69Z" style="opacity:0.1"></path><path d="M310.87,139.63c-15.37-13.06-33.15-22.21-47.15-26h0c-.33-.1-.66-.18-1-.26a49.16,49.16,0,0,0-10.54-1.7h0c-.45,0-.88,0-1.32,0-.63,0-1.24,0-1.84.06a18.18,18.18,0,0,0-3,.44,12.31,12.31,0,0,0-2.1.67l0,0,.79.81h0l1.06,1.13c.26.27.53.57.83.91h0a2.23,2.23,0,0,1,.21.22l1.06,1.18.45.51c6.83,7.7,19.9,23.86,27.06,41.75a224.5,224.5,0,0,1,8.34,25.11q2.76-.48,5.47-1.05a120.67,120.67,0,0,0,28.74-9.75,85.67,85.67,0,0,0,10.32-6q2.12-1.44,4-3A98.81,98.81,0,0,0,310.87,139.63Z" style="fill:#8AFF00"></path><path d="M310.87,139.63c-15.37-13.06-33.15-22.21-47.15-26h0c-.33-.1-.66-.18-1-.26a49.16,49.16,0,0,0-10.54-1.7h0c-.45,0-.88,0-1.32,0-.63,0-1.24,0-1.84.06a18.18,18.18,0,0,0-3,.44,12.31,12.31,0,0,0-2.1.67l0,0,.79.81h0l1.06,1.13c.26.27.53.57.83.91h0a2.23,2.23,0,0,1,.21.22l1.06,1.18.45.51c6.83,7.7,19.9,23.86,27.06,41.75a224.5,224.5,0,0,1,8.34,25.11q2.76-.48,5.47-1.05a120.67,120.67,0,0,0,28.74-9.75,85.67,85.67,0,0,0,10.32-6q2.12-1.44,4-3A98.81,98.81,0,0,0,310.87,139.63Z" style="fill:#fff;opacity:0.15"></path><path d="M231.09,110.93h0a5.45,5.45,0,0,1-1.35.68h0c-2.62,1-7.36,1.62-9.87,3.27-4.19,2.19-26.88,12.48-31.15,15.28-9.66,6.32-18.31,16-25.59,26.7q-2.4-2.16-4.46-4.41a55.37,55.37,0,0,1-6.48-8.43c-4.64-7.46-6.71-15.22-6.26-22.82a33.37,33.37,0,0,1,.8-5.62c10.08-6.76,19.62-11.2,28.72-13.74.51-.14,1-.28,1.51-.4s1-.26,1.5-.38l1.33-.3,1.65-.35,1.57-.28,1.21-.2.4-.06,1.36-.19c1.48-.2,2.95-.34,4.4-.42l1.45-.08,1.43-.05h0c.47,0,.94,0,1.41,0a74.32,74.32,0,0,1,27.51,5.49C231,108.11,232.58,109.79,231.09,110.93Z" style="fill:#8AFF00"></path><path d="M231.09,110.93h0a5.45,5.45,0,0,1-1.35.68h0c-2.62,1-7.36,1.62-9.87,3.27-4.19,2.19-26.88,12.48-31.15,15.28-9.66,6.32-18.31,16-25.59,26.7q-2.4-2.16-4.46-4.41a55.37,55.37,0,0,1-6.48-8.43c19.14-25.59,43-27.41,48.49-32.7a4.06,4.06,0,0,0,1.43-2.71c.15-5.09-13.93-9-26.66-6.77.51-.14,1-.28,1.51-.4s1-.26,1.5-.38l1.33-.3,1.65-.35,1.57-.28,1.21-.2.4-.06,1.36-.19c1.48-.19,2.95-.33,4.4-.42l1.45-.08,1.43-.05h0c.47,0,.94,0,1.41,0a74.32,74.32,0,0,1,27.51,5.49C231,108.11,232.58,109.79,231.09,110.93Z" style="opacity:0.1"></path><path d="M253.18,113.33a15.9,15.9,0,0,0-2.19-1h0l-.11,0c-.59-.22-1.21-.43-1.88-.61-.88-.24-1.82-.45-2.83-.62a43.4,43.4,0,0,0-6.11-.54,67.39,67.39,0,0,0-9,.44h0c-1,.1-1.93.23-2.93.38h0a113.15,113.15,0,0,0-44.32,17.21,94.8,94.8,0,0,0-25.16,23.93q2.06,2.25,4.46,4.41a85.83,85.83,0,0,0,10.17,7.84,119.65,119.65,0,0,0,26.24,12.85c1.79.62,3.6,1.23,5.44,1.8a225.25,225.25,0,0,1,11.28-23.68c9.31-16.86,24.28-31.29,32-38.09l.36-.32.79-.69,1.45-1.25.25-.21c1.34-1.12,2.11-1.73,2.11-1.73Z" style="fill:#8AFF00"></path><path d="M253.18,113.33a15.9,15.9,0,0,0-2.19-1h0l-.11,0c-.59-.22-1.21-.43-1.88-.61-.88-.24-1.82-.45-2.83-.62a43.4,43.4,0,0,0-6.11-.54,67.39,67.39,0,0,0-9,.44h0c-1,.1-1.93.23-2.93.38h0a113.15,113.15,0,0,0-44.32,17.21,94.8,94.8,0,0,0-25.16,23.93q2.06,2.25,4.46,4.41a85.83,85.83,0,0,0,10.17,7.84,119.65,119.65,0,0,0,26.24,12.85c1.79.62,3.6,1.23,5.44,1.8a225.25,225.25,0,0,1,11.28-23.68c9.31-16.86,24.28-31.29,32-38.09l.36-.32.79-.69,1.45-1.25.25-.21c1.34-1.12,2.11-1.73,2.11-1.73Z" style="fill:#fff;opacity:0.15"></path><path d="M281.51,157.79c-11.73-31.11-25.85-38.72-32.89-40.53l-.81-.19a12.6,12.6,0,0,0-3.64-.34s-12.8-2.12-34.42,35.56c-3.42,6-7,14.85-10.22,25.26,1.79.62,3.6,1.23,5.44,1.8a173.32,173.32,0,0,0,78.69,5.09q2.76-.48,5.47-1.05A195,195,0,0,0,281.51,157.79Z" style="fill:#8AFF00"></path><path d="M281.51,157.79c-11.73-31.11-25.85-38.72-32.89-40.53l-.81-.19a12.6,12.6,0,0,0-3.64-.34s-12.8-2.12-34.42,35.56c-3.42,6-7,14.85-10.22,25.26,1.79.62,3.6,1.23,5.44,1.8a173.32,173.32,0,0,0,78.69,5.09q2.76-.48,5.47-1.05A195,195,0,0,0,281.51,157.79Z" style="fill:#fff;opacity:0.30000000000000004"></path><path d="M231.62,123.12c9-5.75,27.95-1.3,32.54,4.32-.32-10,10.38-10.32,14.68-8.25-5-5.5,2.51-11.9,9.31-13.52-9.82-2.14-19.14-9.28-20.55-16.43S268,57.53,259.21,48c-7.08-7.7-16.81-11.49-19.81-10.68-2.71.73-7,7.68-9.86,11.15-3.19,3.83-10.39,5.3-13.57,2.25s-.9-7.13.48-7.71c-5.61,1-6.74,11.45-2.93,15.05s7.76,4.76,14.84,1.83S240,57.31,241,62.69s-2.52,22.3-8.29,29.56-16.59,9-20.66,9c3,.82,12.12,8.26,3.84,12.65C224.14,112,233.05,115.24,231.62,123.12Z" style="fill:#37474f"></path><path d="M241,82.94a33.35,33.35,0,0,1-22,24.87c.76,2.12.24,4.37-3.08,6.14C224.73,112.15,238.84,101.38,241,82.94Z" style="fill:#263238"></path><path d="M247.06,92.6c2.11-12.75,1.29-20.84,1.29-20.84-.73,10.9-2.44,21.84-10,33.88a60,60,0,0,1-8.58,10.86,7.1,7.1,0,0,1,1.9,6.62C237.44,115,245,105.36,247.06,92.6Z" style="fill:#263238"></path><path d="M266.84,120.43a59.21,59.21,0,0,1-4.84-8.21c-4.33-8.68-4-24.31-3.71-33.58s.78-19.81-3.58-25.47c4,6.62,1.11,22.24,1.2,36.52s2.42,28.14,8.25,37.75C264.06,124.13,265.16,121.88,266.84,120.43Z" style="fill:#263238"></path><path d="M278.48,111.74a31,31,0,0,1-9.25-11.11c-4.7-9.16-5.61-17.14-5.88-27.94a100.49,100.49,0,0,0,1,22.43c2.12,11.91,9.79,20.63,14.51,24.07C276.59,116.71,276.87,114.06,278.48,111.74Z" style="fill:#263238"></path></g></g><g id="freepik--Sparkles--inject-23"><g id="freepik--Shine--inject-23"><path d="M462.56,246.67c.07,6.17-.15,12.11-9.07,13.5,9.42-.13,8.71,5.81,9.17,13.25.25-7.44.91-12.78,8.25-13.13C463.32,259,463.52,255.51,462.56,246.67Z" style="fill:#455a64"></path><path d="M80.48,114c.08,7.26-.18,14.25-10.67,15.88,11.08-.15,10.24,6.84,10.79,15.58.29-8.74,1.06-15,9.7-15.43C81.37,128.53,81.6,124.39,80.48,114Z" style="fill:#455a64"></path><path d="M428.52,286.53c.11,9.43-.23,18.5-13.85,20.62,14.39-.2,13.3,8.87,14,20.23.39-11.36,1.38-19.51,12.6-20.05C429.67,305.42,430,300,428.52,286.53Z" style="fill:#8AFF00"></path><path d="M123.44,69.28c.1,9.28-.23,18.22-13.64,20.3,14.16-.19,13.09,8.74,13.79,19.92C124,98.32,125,90.3,136,89.77,124.57,87.88,124.87,82.58,123.44,69.28Z" style="fill:#8AFF00"></path><path d="M110.33,175c.09,8.91-.23,17.49-13.1,19.49,13.6-.18,12.57,8.39,13.23,19.13.37-10.74,1.31-18.44,11.91-18.95C111.41,192.87,111.7,187.79,110.33,175Z" style="fill:#8AFF00"></path><path d="M372,58c.1,9.55-.24,18.75-14,20.89,14.57-.19,13.47,9,14.19,20.5.38-11.51,1.4-19.76,12.76-20.31C373.15,77.11,373.46,71.66,372,58Z" style="fill:#ebebeb"></path><path d="M460.21,105.44c.09,7.92-.2,15.54-11.63,17.31,12.08-.16,11.16,7.46,11.76,17,.32-9.53,1.16-16.38,10.57-16.83C461.17,121.3,461.43,116.79,460.21,105.44Z" style="fill:#8AFF00"></path><path d="M171.77,30.53c.08,7.91-.2,15.53-11.63,17.31,12.07-.16,11.16,7.45,11.75,17,.32-9.54,1.16-16.38,10.58-16.83C172.73,46.39,173,41.87,171.77,30.53Z" style="fill:#ebebeb"></path><path d="M435.68,42.27c.07,6.71-.17,13.17-9.86,14.67,10.24-.13,9.46,6.32,10,14.41.28-8.09,1-13.89,9-14.27C436.5,55.71,436.71,51.88,435.68,42.27Z" style="fill:#e0e0e0"></path><path d="M457,336.16c.07,6.71-.17,13.17-9.87,14.68,10.24-.14,9.47,6.32,10,14.4.27-8.08,1-13.88,9-14.27C457.78,349.61,458,345.78,457,336.16Z" style="fill:#ebebeb"></path><path d="M434.86,166c.07,6.71-.17,13.17-9.86,14.68,10.24-.14,9.46,6.32,10,14.4.28-8.08,1-13.89,9-14.27C435.67,179.48,435.89,175.65,434.86,166Z" style="fill:#e0e0e0"></path><path d="M48.06,194.56c.08-7.91-.2-15.53-11.63-17.31,12.07.16,11.16-7.45,11.75-17,.32,9.54,1.16,16.38,10.58,16.83C49,178.7,49.28,183.22,48.06,194.56Z" style="fill:#ebebeb"></path><path d="M52,80.48c.07-6.71-.17-13.17-9.86-14.68,10.24.14,9.47-6.31,10-14.4.27,8.09,1,13.89,9,14.27C52.78,67,53,70.86,52,80.48Z" style="fill:#e0e0e0"></path></g></g></svg>